<svg xmlns="http://www.w3.org/2000/svg" xmlns:xlink="http://www.w3.org/1999/xlink" xmlns:fi="http://pattern.flaticon.com/" x="0" y="0" width="1600" height="800" viewBox="0 0 5600 2800"><rect x="0px" y="0px" width="100%" height="100%" opacity="1" fill="#ffffff"/><defs><g transform="matrix(0.10207159995140833 0.03499597723403153 -0.03499597723403153 0.10207159995140833 270.9371931133938 83.5952012573803)" id="L1_2"><g><g><path d="m490.913 258.48c8.43 1.66 13.92 9.83 12.27 18.25l-6.15 31.32c-1.7 8.67-10.3 14.23-18.98 12.1-8.13-1.99-13.06-10.3-11.45-18.51l.17-.84-40.54 1.85c-1.22.05-2.28.86-2.66 2.03-3.96 11.96-9.17 23.36-15.48 34.02-.64 1.08-.54 2.45.27 3.41l17.93 21.3c3.56-3.39 8.21-5.15 12.91-5.15 3.96 0 7.96 1.25 11.35 3.85 8.21 6.28 9.77 18.03 3.49 26.25l-5.2 6.79c-6.1 7.98-17.47 10.12-25.75 4.41-7.13-4.91-9.71-13.74-7.13-21.41l-25.83-11.35c-1.17-.51-2.52-.21-3.37.73-11.96 13.13-25.88 24.43-41.3 33.45-1.06.62-1.63 1.82-1.43 3.03l6.61 40.32 5.72-2.29c8.21-3.28 17.55.92 20.48 9.37 2.74 7.91-1.56 16.56-9.33 19.66l-29.23 11.7c-8.2 3.28-17.54-.92-20.47-9.37-2.74-7.91 1.56-16.56 9.33-19.67l.79-.31-23.58-33.04c-.71-1-1.96-1.44-3.15-1.13-14.09 3.65-28.87 5.61-44.11 5.61-12.06 0-23.82-1.23-35.19-3.55-1.2-.24-2.43.27-3.09 1.3l-23.59 37.01.83.3c7.68 2.8 12.44 10.05 12.44 17.77 0 2.16-.37 4.35-1.15 6.49 0 11.07-8.51 17.03-18.91 13.23l-28.99-10.57c-9.7-3.53-14.76-14.18-11.41-23.91 3.44-10.03 14.87-15.09 24.83-11.46l.67.24 4.8-43.37c.14-1.22-.5-2.38-1.59-2.95-18.36-9.48-34.83-22.11-48.7-37.18-.84-.91-2.15-1.21-3.29-.74l-35.38 14.51c4 7.48 1.75 16.96-5.55 21.76-7.62 5.01-17.91 2.68-23.11-4.8l-9.06-13.05c-5.07-7.29-3.89-17.45 3.09-22.95 7.44-5.86 18.05-4.34 23.62 3.03l24.92-28.16c.83-.94.97-2.3.36-3.39-10.23-18.44-17.23-38.92-20.24-60.67-.17-1.22-1.06-2.21-2.25-2.48l-39.82-9.2-.04 4.67c-.04 4.67-1.96 8.9-5.05 11.95-3.08 3.06-7.32 4.94-12 4.94-9.3 0-16.83-7.59-16.74-16.89l.26-28.93c.08-9.46 7.9-17.43 17.35-17.18 9.17.24 16.49 7.78 16.44 16.98l39.53-9.27c1.2-.28 2.09-1.27 2.25-2.49 3.1-23 10.67-44.59 21.8-63.87.62-1.08.51-2.43-.3-3.39l-18.85-22.14-1.64 2.16c-5.08 6.72-14.78 7.89-21.33 2.44-6.14-5.12-6.89-14.3-2.07-20.67l12.56-16.6c2.92-3.85 7.35-5.88 11.84-5.88 3.11 0 6.25.98 8.93 3 6.21 4.69 7.67 13.31 3.57 19.77l26.36 11.4c1.16.5 2.5.2 3.36-.73 12.44-13.64 27.01-25.3 43.19-34.47 1.06-.61 1.65-1.8 1.47-3.01l-6.07-40.41-5.76 2.22c-8.24 3.17-17.53-1.16-20.34-9.64-2.64-7.95 1.78-16.54 9.59-19.54l29.38-11.3c8.25-3.17 17.53 1.15 20.34 9.64 2.64 7.94-1.77 16.53-9.59 19.54l-.79.3 23.12 33.34c.7 1.01 1.94 1.47 3.13 1.18 13.42-3.29 27.43-5.03 41.86-5.03h.02c1.26 0 2.39-.77 2.81-1.96l7.66-21.42c-8.87-2.78-14.78-11.53-13.65-21.07 1.29-10.81 11.64-18.49 22.45-17.13l10.52 1.32c10.72 1.35 18.76 10.95 17.59 21.7-.92 8.37-6.94 14.89-14.58 16.89l2.66 23.22c.14 1.25 1.07 2.27 2.31 2.54 17.78 3.91 34.55 10.52 49.85 19.37 1.07.61 2.39.52 3.34-.26l31.73-25.75-4.82-3.83c-6.93-5.5-7.91-15.69-2.03-22.42 5.5-6.31 15.15-6.87 21.7-1.66l24.65 19.57c6.93 5.49 7.91 15.69 2.03 22.42-5.5 6.3-15.15 6.86-21.7 1.66l-.67-.53-16.99 36.89c-.52 1.11-.28 2.42.58 3.3 11.96 12.25 22.14 26.25 30.12 41.57.58 1.11 1.79 1.74 3.03 1.57l24.09-3.37c-3.54-9.88 1.71-20.83 11.81-24.14 9.63-3.16 20.01 2.19 23.55 11.69l5.55 14.88c3.5 9.41-.7 20.18-9.9 24.18-8.82 3.83-18.77.37-23.51-7.45l-19.99 13.56c-1.05.71-1.52 2.01-1.18 3.23 4.11 14.9 6.31 30.58 6.31 46.78 0 2.71-.06 5.4-.19 8.07-.05 1.23.64 2.36 1.76 2.85l37.48 16.37 1.18-6.05c1.66-8.43 9.83-13.92 18.25-12.27z" fill="#f79595" id="XMLID_427_"/><ellipse cx="333px" cy="163px" rx="24px" ry="20px" fill="#ee6161"/><circle cx="243" cy="292" r="27" fill="#ee6161"/><circle cx="349" cy="277" r="19" fill="#f9b1b1"/><circle cx="277" cy="372" r="18" fill="#f9b1b1"/><path d="m150.458 241.113c0-67.408 32.157-127.319 81.946-165.228-5.813.82-11.552 1.928-17.17 3.306-1.19.29-2.43-.17-3.13-1.18l-23.12-33.34.79-.3c7.82-3.01 12.23-11.6 9.59-19.54-2.81-8.49-12.09-12.81-20.34-9.64l-29.38 11.3c-7.81 3-12.23 11.59-9.59 19.54 2.81 8.48 12.1 12.81 20.34 9.64l5.76-2.22 6.07 40.41c.18 1.21-.41 2.4-1.47 3.01-16.18 9.17-30.75 20.83-43.19 34.47-.86.93-2.2 1.23-3.36.73l-26.36-11.4c4.1-6.46 2.64-15.08-3.57-19.77-2.68-2.02-5.82-3-8.93-3-4.49 0-8.92 2.03-11.84 5.88l-12.56 16.6c-4.82 6.37-4.07 15.55 2.07 20.67 6.55 5.45 16.25 4.28 21.33-2.44l1.64-2.16 18.85 22.14c.81.96.92 2.31.3 3.39-11.13 19.28-18.7 40.87-21.8 63.87-.16 1.22-1.05 2.21-2.25 2.49l-39.53 9.27c.05-9.2-7.27-16.74-16.44-16.98-9.45-.25-17.27 7.72-17.35 17.18l-.26 28.93c-.09 9.3 7.44 16.89 16.74 16.89 4.68 0 8.92-1.88 12-4.94 3.09-3.05 5.01-7.28 5.05-11.95l.04-4.67 39.82 9.2c1.19.27 2.08 1.26 2.25 2.48 3.01 21.75 10.01 42.23 20.24 60.67.61 1.09.47 2.45-.36 3.39l-24.92 28.16c-5.57-7.37-16.18-8.89-23.62-3.03-6.98 5.5-8.16 15.66-3.09 22.95l9.06 13.05c5.2 7.48 15.49 9.81 23.11 4.8 7.3-4.8 9.55-14.28 5.55-21.76l35.38-14.51c1.14-.47 2.45-.17 3.29.74 13.87 15.07 30.34 27.7 48.7 37.18 1.09.57 1.73 1.73 1.59 2.95l-4.8 43.37-.67-.24c-9.96-3.63-21.39 1.43-24.83 11.46-3.35 9.73 1.71 20.38 11.41 23.91l28.99 10.57c10.4 3.8 18.91-2.16 18.91-13.23.78-2.14 1.15-4.33 1.15-6.49 0-7.72-4.76-14.97-12.44-17.77l-.83-.3 23.59-37.01c.66-1.03 1.89-1.54 3.09-1.3 11.37 2.32 23.13 3.55 35.19 3.55 1.419 0 2.861-.018 4.272-.051-65.928-34.765-110.908-103.985-110.908-183.697z" fill="#f37c7c"/><circle cx="159" cy="327" r="19" fill="#ee6161"/></g><ellipse cx="199px" cy="183px" rx="51px" ry="43px" transform="matrix(0.785 -0.619 0.619 0.785 -71.107 162.693)" fill="#ee6161"/></g><g><path d="m492.361 251.124c-6.043-1.184-12.182.054-17.292 3.487-4.232 2.844-7.338 6.913-8.953 11.659l-26.259-11.467c.054-1.797.081-3.568.081-5.293 0-15.439-1.933-30.769-5.747-45.62l11.779-7.99c7.466 6.539 18.317 8.494 27.817 4.367 12.783-5.555 18.906-20.348 13.938-33.678l-5.545-14.881c-5.027-13.493-19.488-20.602-32.919-16.194-6.797 2.232-12.267 6.994-15.401 13.408-1.783 3.648-2.682 7.561-2.684 11.493l-13.363 1.866c-1.831-3.356-3.831-6.757-5.967-10.145-2.209-3.504-6.842-4.553-10.344-2.345-3.505 2.209-4.555 6.84-2.346 10.344 2.521 3.999 4.831 8.006 6.866 11.912 2.043 3.916 6.351 6.137 10.711 5.529l24.098-3.364c2.236-.312 4.213-1.615 5.381-3.547s1.404-4.288.642-6.413c-1.035-2.884-.863-5.989.482-8.743 1.342-2.746 3.687-4.785 6.604-5.743 5.658-1.856 12.017 1.365 14.184 7.181l5.545 14.881c2.146 5.759-.483 12.346-5.861 14.684-5.148 2.236-11.21.319-14.107-4.458-1.065-1.757-2.806-3-4.813-3.438-2.007-.439-4.108-.032-5.809 1.121l-19.987 13.557c-3.708 2.514-5.396 7.111-4.2 11.439 4.012 14.527 6.046 29.593 6.046 44.778 0 2.488-.063 5.088-.185 7.729-.199 4.302 2.314 8.348 6.252 10.067l37.472 16.364c2.084.911 4.469.826 6.482-.229 2.015-1.055 3.441-2.967 3.879-5.199l1.188-6.05c.414-2.109 1.625-3.931 3.409-5.13 1.783-1.199 3.927-1.632 6.037-1.217 4.355.854 7.203 5.092 6.349 9.446l-6.145 31.317c-.428 2.18-1.695 4.039-3.569 5.235-1.872 1.195-4.098 1.557-6.267 1.027-4.1-1.007-6.735-5.398-5.874-9.79l.164-.837c.442-2.259-.177-4.596-1.68-6.339-1.503-1.745-3.74-2.709-6.022-2.596l-40.534 1.849c-4.291.195-8.086 3.073-9.442 7.165-3.755 11.338-8.739 22.293-14.815 32.559-2.263 3.822-1.866 8.668.987 12.058l17.932 21.303c1.332 1.583 3.259 2.544 5.323 2.659 2.065.112 4.087-.63 5.584-2.055 4.02-3.823 10.13-4.15 14.53-.783 2.382 1.822 3.91 4.462 4.306 7.434s-.391 5.92-2.212 8.301l-5.196 6.791c-3.733 4.877-10.705 6.131-15.542 2.798-4.111-2.833-5.869-8.113-4.275-12.84 1.242-3.681-.533-7.701-4.091-9.263l-25.832-11.346c-4.108-1.807-8.903-.786-11.935 2.541-11.518 12.648-24.819 23.424-39.534 32.029-3.717 2.17-5.746 6.476-5.052 10.713l6.613 40.324c.368 2.244 1.734 4.2 3.715 5.318s4.36 1.276 6.473.432l5.722-2.29c2.063-.825 4.313-.771 6.335.153 2.021.922 3.535 2.593 4.267 4.705 1.382 3.989-.875 8.588-5.031 10.25l-29.222 11.69c-2.063.826-4.312.771-6.335-.152-2.02-.922-3.535-2.593-4.267-4.704-1.382-3.989.874-8.588 5.027-10.25l.791-.316c2.138-.855 3.764-2.644 4.412-4.853.647-2.209.245-4.593-1.093-6.467l-23.575-33.032c-2.494-3.497-6.973-5.12-11.137-4.04-13.745 3.563-27.954 5.37-42.234 5.37-11.307 0-22.642-1.142-33.688-3.394-4.217-.859-8.599.994-10.912 4.615l-23.597 37.009c-1.223 1.917-1.509 4.286-.778 6.44.729 2.154 2.397 3.86 4.534 4.639l.835.305c2.865 1.044 5.152 3.142 6.439 5.907 1.287 2.764 1.42 5.865.376 8.73-.301.823-.454 1.693-.454 2.569 0 2.837-.837 4.986-2.357 6.049-1.519 1.064-3.823 1.116-6.49.142l-28.988-10.57c-5.805-2.116-8.895-8.589-6.89-14.429.957-2.784 3.017-5.048 5.801-6.376 2.941-1.403 6.36-1.577 9.377-.477l.664.242c2.161.79 4.567.541 6.523-.673 1.957-1.214 3.247-3.259 3.5-5.547l4.804-43.373c.473-4.268-1.779-8.461-5.603-10.435-17.535-9.056-33.224-21.034-46.627-35.597-2.95-3.208-7.634-4.255-11.656-2.604l-35.375 14.507c-1.963.805-3.493 2.403-4.211 4.399-.719 1.996-.558 4.203.441 6.074 2.245 4.2.93 9.345-3.058 11.967-4.111 2.705-9.867 1.44-12.827-2.82l-9.061-13.043c-2.906-4.183-2.214-9.798 1.575-12.784 1.959-1.544 4.39-2.22 6.84-1.905 2.469.318 4.653 1.584 6.152 3.566 1.356 1.794 3.446 2.885 5.694 2.972 2.24.086 4.415-.84 5.905-2.525l24.916-28.162c2.924-3.305 3.448-8.125 1.303-11.999-2.679-4.832-5.171-9.92-7.405-15.124-1.636-3.805-6.045-5.566-9.852-3.931-3.806 1.635-5.566 6.045-3.932 9.851 2.003 4.661 4.196 9.241 6.538 13.652l-17.846 20.173c-2.87-1.76-6.108-2.908-9.557-3.352-6.487-.833-12.889.943-18.04 5.001-10.009 7.888-12.033 22.438-4.608 33.124l9.061 13.042c7.561 10.884 22.537 13.931 33.388 6.795 8.115-5.337 12.026-14.646 10.661-23.714l26.08-10.696c13.394 14.064 28.794 25.819 45.854 35l-3.568 32.217c-4.282-.122-8.59.768-12.508 2.637-6.448 3.076-11.253 8.417-13.529 15.042-4.642 13.517 2.508 28.498 15.938 33.395l28.988 10.57c2.909 1.061 5.832 1.585 8.647 1.585 4.24 0 8.237-1.19 11.582-3.53 5.248-3.673 8.386-9.827 8.726-17.024 1.945-6.272 1.499-12.951-1.293-18.946-1.789-3.844-4.414-7.13-7.662-9.666l17.611-27.622c25.29 4.705 51.661 4.013 76.583-1.993l17.114 23.979c-6.736 6.096-9.534 15.689-6.443 24.613 2.088 6.023 6.424 10.795 12.21 13.438 5.706 2.605 12.314 2.763 18.137.435l29.223-11.69c11.676-4.671 17.665-17.448 13.633-29.087-2.087-6.023-6.423-10.796-12.209-13.439-4.747-2.168-10.123-2.643-15.149-1.397l-4.635-28.259c14.038-8.533 26.849-18.903 38.15-30.882l17.452 7.665c-.488 8.965 3.669 17.84 11.3 23.099 11.51 7.931 27.308 5.279 35.966-6.034l5.196-6.791c4.257-5.563 6.093-12.451 5.169-19.395s-4.496-13.113-10.06-17.37c-8.117-6.211-18.713-7.047-27.438-2.748l-11.508-13.672c5.379-9.47 9.915-19.445 13.52-29.73l29.417-1.342c1.459 8.967 7.993 16.527 17.165 18.779 6.19 1.521 12.553.471 17.914-2.951 5.286-3.375 9.01-8.838 10.217-14.991l6.145-31.317c2.446-12.471-5.709-24.607-18.18-27.054z"/><path d="m48.322 271.383 28.112 6.493c.612 3.909 1.369 7.878 2.259 11.837.783 3.488 3.879 5.859 7.311 5.858.544 0 1.097-.06 1.65-.184 4.041-.908 6.582-4.919 5.674-8.961-1.033-4.604-1.872-9.215-2.492-13.705-.591-4.273-3.805-7.795-7.996-8.762l-39.815-9.195c-2.213-.511-4.545.01-6.33 1.417-1.786 1.408-2.837 3.55-2.857 5.824l-.041 4.661c-.047 5.218-4.33 9.464-9.549 9.464-2.485 0-4.818-.972-6.567-2.737-1.75-1.766-2.701-4.106-2.679-6.591l.26-28.924c.023-2.652 1.15-5.247 3.091-7.119 1.824-1.76 4.129-2.704 6.564-2.632 5.066.134 9.166 4.37 9.138 9.443-.013 2.297 1.028 4.474 2.825 5.906 1.797 1.433 4.153 1.963 6.387 1.437l39.535-9.27c4.188-.982 7.388-4.513 7.965-8.787 2.917-21.633 9.936-42.198 20.861-61.126 2.204-3.822 1.77-8.644-1.085-12l-18.853-22.142c-1.474-1.73-3.641-2.702-5.927-2.635-2.273.066-4.394 1.159-5.766 2.972l-1.634 2.16c-1.221 1.614-3.001 2.629-5.013 2.86-2.005.23-3.976-.36-5.539-1.662-2.954-2.461-3.352-7.115-.887-10.374l12.558-16.604c2.438-3.223 7.044-3.863 10.267-1.424 3.018 2.282 3.791 6.569 1.761 9.76-1.178 1.853-1.485 4.128-.84 6.227s2.177 3.81 4.191 4.681l26.363 11.402c4.087 1.769 8.858.743 11.872-2.557 12.002-13.147 25.914-24.251 41.354-33.003 3.74-2.122 5.825-6.398 5.189-10.644l-6.073-40.408c-.338-2.249-1.679-4.223-3.644-5.367-1.967-1.145-4.347-1.335-6.466-.519l-5.753 2.213c-2.074.796-4.322.713-6.331-.237-2.008-.949-3.5-2.64-4.203-4.761-1.329-4.008.988-8.575 5.167-10.182l29.376-11.299c2.074-.798 4.322-.713 6.331.237 2.008.949 3.501 2.64 4.204 4.761 1.328 4.008-.989 8.575-5.168 10.183l-.794.306c-2.148.827-3.798 2.594-4.475 4.794-.676 2.2-.306 4.589 1.007 6.48l23.126 33.338c2.446 3.526 6.897 5.209 11.076 4.186 13.034-3.192 26.516-4.811 40.088-4.811h.004c4.425 0 8.392-2.789 9.871-6.936l7.657-21.426c.687-1.922.561-4.042-.35-5.868-.91-1.827-2.525-3.205-4.474-3.814-5.576-1.744-9.123-7.22-8.435-13.02.367-3.086 1.988-5.895 4.564-7.91 2.705-2.116 6.166-3.089 9.501-2.668l10.516 1.324c6.816.858 11.781 6.887 11.068 13.439-.551 5.058-4.092 9.16-9.021 10.45-3.61.945-5.977 4.401-5.552 8.109l2.661 23.218c.507 4.431 3.781 8.053 8.15 9.014 16.752 3.68 32.805 9.917 47.708 18.535 3.733 2.16 8.483 1.788 11.822-.922l31.729-25.755c1.766-1.433 2.785-3.59 2.773-5.864-.013-2.273-1.056-4.419-2.836-5.833l-4.827-3.833c-1.74-1.381-2.81-3.361-3.012-5.576-.201-2.211.497-4.355 1.968-6.038 2.777-3.181 7.888-3.503 11.396-.72l24.65 19.571c1.74 1.381 2.81 3.361 3.012 5.575.201 2.211-.497 4.355-1.968 6.039-2.778 3.179-7.892 3.501-11.394.721l-.665-.528c-1.804-1.433-4.166-1.957-6.403-1.423-2.24.534-4.11 2.067-5.073 4.158l-16.995 36.892c-1.797 3.902-.982 8.594 2.025 11.675 1.066 1.092 2.119 2.222 3.372 3.583 2.805 3.048 7.55 3.244 10.598.438 3.047-2.806 3.243-7.55.438-10.598-.53-.577-1.029-1.117-1.513-1.634l12.343-26.794c8.635 2.824 18.351.493 24.564-6.62 4.194-4.801 6.186-10.934 5.608-17.269-.569-6.246-3.712-12.063-8.623-15.961l-24.65-19.57c-9.849-7.819-23.913-6.68-32.019 2.599-4.194 4.801-6.186 10.934-5.608 17.269.474 5.198 2.729 10.1 6.305 13.845l-22.226 18.045c-14.52-8.069-30.004-14.09-46.108-17.931l-1.648-14.387c7.623-4.216 12.97-11.98 13.937-20.855 1.593-14.638-9.222-28.071-24.107-29.946l-10.516-1.324c-7.266-.914-14.783 1.176-20.614 5.735-5.748 4.495-9.378 10.872-10.219 17.957-1.224 10.3 3.528 20.142 11.781 25.708l-4.343 12.151c-12.638.216-25.199 1.725-37.428 4.496l-16.784-24.196c6.815-6.004 9.742-15.559 6.771-24.523-2.007-6.051-6.279-10.881-12.029-13.601-5.67-2.681-12.276-2.928-18.129-.677l-29.375 11.298c-11.739 4.514-17.898 17.21-14.021 28.903 2.006 6.051 6.277 10.881 12.028 13.601 4.718 2.231 10.083 2.778 15.129 1.599l4.256 28.318c-14.809 8.731-28.281 19.477-40.119 31.999l-16.933-7.323c1.376-8.017-1.687-16.516-8.495-21.666-4.757-3.598-10.628-5.131-16.538-4.308-5.908.819-11.143 3.891-14.74 8.648l-12.559 16.604c-7.349 9.714-5.922 23.308 3.248 30.947 4.745 3.953 10.728 5.744 16.852 5.04 3.861-.443 7.529-1.902 10.631-4.165l11.361 13.345c-10.498 18.937-17.455 39.337-20.709 60.723l-29.021 6.805c-3.523-8.792-12.047-15.16-22.011-15.423-6.487-.163-12.634 2.256-17.378 6.833-4.816 4.648-7.614 11.127-7.675 17.777l-.26 28.926c-.058 6.517 2.437 12.656 7.024 17.285s10.704 7.178 17.222 7.178c11.85.001 21.825-8.514 24.075-19.748z"/><path d="m219.962 230.442c3.659-1.939 5.054-6.479 3.114-10.139-1.939-3.658-6.477-5.056-10.14-3.114-17.923 9.5-38.352 6.989-48.569-5.975-5.733-7.272-7.705-16.909-5.553-27.134 2.256-10.722 8.708-20.733 18.167-28.188 9.457-7.456 20.699-11.386 31.65-11.082 10.445.295 19.354 4.463 25.088 11.736 8.608 10.921 8.499 27.222-.279 41.529-2.166 3.531-1.061 8.149 2.471 10.315 3.53 2.166 8.148 1.06 10.314-2.47 12.102-19.724 11.816-42.749-.727-58.66-8.533-10.826-21.476-17.021-36.443-17.443-14.464-.42-29.148 4.668-41.36 14.295-12.214 9.627-20.58 22.725-23.56 36.879-3.084 14.652-.082 28.684 8.451 39.509 8.985 11.398 23.054 17.394 38.19 17.393 9.643 0 19.718-2.432 29.186-7.451z"/><path d="m365.49 163.181c0-15.549-14.47-28.199-32.256-28.199s-32.257 12.65-32.257 28.199 14.471 28.199 32.257 28.199 32.256-12.65 32.256-28.199zm-49.512 0c0-7.278 7.741-13.199 17.257-13.199 9.515 0 17.256 5.921 17.256 13.199s-7.741 13.199-17.256 13.199c-9.516 0-17.257-5.921-17.257-13.199z"/><path d="m278.455 292.082c0-19.056-15.503-34.559-34.559-34.559-19.057 0-34.56 15.503-34.56 34.559s15.503 34.559 34.56 34.559c19.056 0 34.559-15.503 34.559-34.559zm-54.118 0c0-10.785 8.774-19.559 19.56-19.559 10.784 0 19.559 8.774 19.559 19.559s-8.774 19.559-19.559 19.559c-10.786 0-19.56-8.774-19.56-19.559z"/><path d="m376.229 277.985c0-14.819-12.056-26.875-26.875-26.875-14.818 0-26.874 12.056-26.874 26.875s12.056 26.875 26.874 26.875c14.819-.001 26.875-12.056 26.875-26.875zm-38.75 0c0-6.548 5.327-11.875 11.874-11.875 6.548 0 11.875 5.327 11.875 11.875s-5.327 11.875-11.875 11.875c-6.546-.001-11.874-5.327-11.874-11.875z"/><path d="m277.802 398.869c14.521 0 26.336-11.814 26.336-26.336 0-14.521-11.814-26.336-26.336-26.336s-26.337 11.814-26.337 26.336 11.814 26.336 26.337 26.336zm0-37.672c6.251 0 11.336 5.085 11.336 11.336s-5.085 11.336-11.336 11.336-11.337-5.085-11.337-11.336 5.086-11.336 11.337-11.336z"/><path d="m159.94 354.598c14.955 0 27.122-12.167 27.122-27.122s-12.167-27.122-27.122-27.122-27.122 12.167-27.122 27.122 12.167 27.122 27.122 27.122zm0-39.244c6.685 0 12.122 5.438 12.122 12.122s-5.438 12.122-12.122 12.122-12.122-5.438-12.122-12.122 5.438-12.122 12.122-12.122z"/><path d="m312.663 233.613c0-4.142-3.357-7.5-7.5-7.5h-6.63c-4.143 0-7.5 3.358-7.5 7.5s3.357 7.5 7.5 7.5h6.63c4.143 0 7.5-3.358 7.5-7.5z"/><path d="m210.025 372.213h6.812c4.143 0 7.5-3.358 7.5-7.5s-3.357-7.5-7.5-7.5h-6.812c-4.143 0-7.5 3.358-7.5 7.5s3.358 7.5 7.5 7.5z"/><path d="m146.88 262.991c4.143 0 7.5-3.358 7.5-7.5s-3.357-7.5-7.5-7.5h-6.562c-4.143 0-7.5 3.358-7.5 7.5s3.357 7.5 7.5 7.5z"/><path d="m280.087 131.774c4.143 0 7.5-3.358 7.5-7.5s-3.357-7.5-7.5-7.5h-9.132c-4.143 0-7.5 3.358-7.5 7.5s3.357 7.5 7.5 7.5z"/><path d="m329.979 332.797c-4.143 0-7.5 3.358-7.5 7.5s3.357 7.5 7.5 7.5h10.084c4.143 0 7.5-3.358 7.5-7.5s-3.357-7.5-7.5-7.5z"/></g></g><g transform="matrix(0.1172003224492073 0 0 0.1172003224492073 -3 319.0000009728542)" id="L1_3"><path d="m423.256 229.296-193.917 193.916c-38.803 38.803-101.714 38.803-140.517 0l-.119-.119c-38.803-38.803-38.803-101.714 0-140.517l193.917-193.916c38.803-38.803 101.714-38.803 140.517 0l.119.119c38.802 38.802 38.802 101.714 0 140.517z" fill="#ff4566"/><path d="m423.256 88.778-.051-.051-334.434 334.434.051.051c38.803 38.803 101.715 38.803 140.517 0l193.916-193.916c38.804-38.803 38.804-101.715.001-140.518z" fill="#fa184b"/><path d="m155.092 231.188c-3.839 0-7.678-1.464-10.606-4.394l-31.558-31.558c-5.858-5.858-5.858-15.355 0-21.213 5.857-5.858 15.355-5.858 21.213 0l31.558 31.558c5.858 5.858 5.858 15.355 0 21.213-2.929 2.929-6.768 4.394-10.607 4.394z" fill="#ff8f7a"/><path d="m221.207 165.073c-3.839 0-7.678-1.464-10.606-4.394l-31.558-31.558c-5.858-5.858-5.858-15.355 0-21.213 5.857-5.858 15.355-5.858 21.213 0l31.558 31.558c5.858 5.858 5.858 15.355 0 21.213-2.93 2.93-6.769 4.394-10.607 4.394z" fill="#ff8f7a"/><path d="m328.769 401.867c-3.839 0-7.678-1.464-10.606-4.394l-31.558-31.558c-5.858-5.858-5.858-15.355 0-21.213 5.857-5.858 15.355-5.858 21.213 0l31.558 31.558c5.858 5.858 5.858 15.355 0 21.213-2.929 2.93-6.768 4.394-10.607 4.394z" fill="#fc7964"/><path d="m394.134 336.502c-3.839 0-7.678-1.464-10.606-4.394l-31.558-31.558c-5.858-5.858-5.858-15.355 0-21.213 5.857-5.858 15.355-5.858 21.213 0l31.558 31.558c5.858 5.858 5.858 15.355 0 21.213-2.929 2.93-6.768 4.394-10.607 4.394z" fill="#fc7964"/><path d="m423.128 103.682c-3.839 0-7.678-1.464-10.606-4.394-5.858-5.858-5.858-15.355 0-21.213l31.558-31.558c5.857-5.858 15.355-5.858 21.213 0s5.858 15.355 0 21.213l-31.558 31.558c-2.929 2.93-6.768 4.394-10.607 4.394z" fill="#ff8f7a"/><path d="m459.5 271.137c-3.839 0-7.678-1.464-10.606-4.394l-31.558-31.558c-5.858-5.858-5.858-15.355 0-21.213 5.857-5.858 15.355-5.858 21.213 0l31.558 31.558c5.858 5.858 5.858 15.355 0 21.213-2.93 2.93-6.769 4.394-10.607 4.394z" fill="#fc7964"/><path d="m287.467 99.104c-3.839 0-7.678-1.464-10.606-4.394l-31.558-31.558c-5.858-5.858-5.858-15.355 0-21.213 5.857-5.858 15.355-5.858 21.213 0l31.558 31.558c5.858 5.858 5.858 15.355 0 21.213-2.929 2.93-6.768 4.394-10.607 4.394z" fill="#ff8f7a"/><path d="m88.975 297.3c-3.839 0-7.678-1.464-10.606-4.394l-31.558-31.558c-5.858-5.858-5.858-15.355 0-21.213 5.857-5.858 15.355-5.858 21.213 0l31.558 31.558c5.858 5.858 5.858 15.355 0 21.213-2.929 2.93-6.768 4.394-10.607 4.394z" fill="#ff8f7a"/><path d="m263.404 467.233c-3.839 0-7.678-1.464-10.606-4.394l-31.558-31.558c-5.858-5.858-5.858-15.355 0-21.213 5.857-5.858 15.355-5.858 21.213 0l31.558 31.558c5.858 5.858 5.858 15.355 0 21.213-2.929 2.929-6.768 4.394-10.607 4.394z" fill="#fc7964"/><path d="m159.33 511.742c-8.284 0-15-6.716-15-15v-44.63c0-8.284 6.716-15 15-15s15 6.716 15 15v44.63c0 8.284-6.716 15-15 15z" fill="#fc7964"/><path d="m359.274 74.832c-8.284 0-15-6.716-15-15v-44.63c0-8.284 6.716-15 15-15s15 6.716 15 15v44.63c0 8.284-6.715 15-15 15z" fill="#ff8f7a"/><path d="m496.944 168.953h-44.63c-8.284 0-15-6.716-15-15s6.716-15 15-15h44.63c8.284 0 15 6.716 15 15s-6.716 15-15 15z" fill="#fc7964"/><path d="m59.63 368.425h-44.63c-8.284 0-15-6.716-15-15s6.716-15 15-15h44.63c8.284 0 15 6.716 15 15s-6.716 15-15 15z" fill="#ff8f7a"/><path d="m57.067 469.849c-3.839 0-7.678-1.464-10.606-4.394-5.858-5.858-5.858-15.355 0-21.213l31.558-31.558c5.857-5.858 15.355-5.858 21.213 0s5.858 15.355 0 21.213l-31.558 31.558c-2.929 2.93-6.768 4.394-10.607 4.394z" fill="#ff8f7a"/><path d="m256.137 306.009c-13.278 0-24.081-10.802-24.081-24.081 0-8.284-6.716-15-15-15s-15 6.716-15 15c0 29.82 24.26 54.081 54.081 54.081 8.284 0 15-6.716 15-15s-6.716-15-15-15z" fill="#de0a3e"/><path d="m379.912 136.895c-5.857-5.857-15.355-5.858-21.213 0-10.215 10.214-15.84 23.795-15.84 38.241 0 14.445 5.625 28.026 15.84 38.241 2.929 2.929 6.768 4.393 10.606 4.393s7.678-1.464 10.607-4.394c5.857-5.858 5.857-15.355 0-21.213-4.548-4.548-7.053-10.595-7.053-17.027s2.505-12.479 7.053-17.027c5.858-5.859 5.858-15.356 0-21.214z" fill="#de0a3e"/><path d="m135.481 323.143c9.389 9.389 9.389 24.666 0 34.055-5.858 5.858-5.858 15.355 0 21.213s15.355 5.858 21.213 0c21.086-21.086 21.086-55.395 0-76.481-5.858-5.858-15.355-5.858-21.213 0-5.857 5.857-5.857 15.355 0 21.213z" fill="#de0a3e"/><path d="m247.61 187.715c9.389 9.389 9.389 24.666 0 34.055-5.858 5.858-5.858 15.355 0 21.213s15.355 5.858 21.213 0c21.086-21.086 21.086-55.395 0-76.481-5.858-5.858-15.355-5.858-21.213 0s-5.858 15.355 0 21.213z" fill="#de0a3e"/><path d="m465.354 46.579-52.765 52.765c2.921 2.888 6.73 4.335 10.542 4.335 3.839 0 7.678-1.464 10.607-4.394l31.558-31.558c5.837-5.837 5.854-15.285.058-21.148z" fill="#fc7964"/><path d="m99.24 412.693-52.77 52.77c2.928 2.924 6.762 4.386 10.598 4.386 3.839 0 7.678-1.464 10.607-4.394l31.558-31.558c5.854-5.855 5.856-15.346.007-21.204z" fill="#fc7964"/><g fill="#bd0533"><path d="m256.137 306.009c-13.278 0-24.081-10.802-24.081-24.081 0-.651-.055-1.288-.136-1.917l-24.778 24.778c8.631 18.423 27.342 31.219 48.995 31.219 8.284 0 15-6.716 15-15 0-8.283-6.716-14.999-15-14.999z"/><path d="m172.492 339.441-37.941 37.941c.293.353.6.699.93 1.029 5.858 5.858 15.355 5.858 21.213 0 10.729-10.728 15.986-24.879 15.798-38.97z"/><path d="m379.912 192.162c-4.548-4.548-7.053-10.595-7.053-17.027s2.505-12.48 7.053-17.027c5.858-5.858 5.858-15.355 0-21.213-.84-.84-1.761-1.546-2.73-2.145l-33.929 33.929c-.252 2.128-.395 4.281-.395 6.457 0 14.445 5.626 28.026 15.84 38.241 2.929 2.929 6.768 4.393 10.606 4.393 3.839 0 7.678-1.464 10.607-4.394 5.859-5.858 5.859-15.356.001-21.214z"/></g><path d="m159.081 467.26c-29.286 0-58.571-11.147-80.865-33.442l-.119-.119c-44.589-44.589-44.589-117.141 0-161.73l193.916-193.916c44.589-44.59 117.142-44.59 161.73 0l.119.119c44.589 44.589 44.589 117.141 0 161.73l-193.916 193.916c-22.295 22.295-51.58 33.442-80.865 33.442zm253.568-248.571c32.892-32.892 32.892-86.412 0-119.304l-.119-.119c-16.446-16.446-38.049-24.669-59.652-24.669s-43.206 8.223-59.652 24.669l-193.916 193.916c-32.892 32.892-32.892 86.412 0 119.304l.119.119c32.893 32.892 86.412 32.891 119.304 0z" fill="#ffbca7"/><path d="m433.862 78.172-.051-.051-21.213 21.213.051.051c32.892 32.892 32.892 86.412 0 119.304l-193.916 193.916c-32.892 32.891-86.411 32.892-119.304 0l-.051-.051-21.213 21.213.051.051c22.294 22.295 51.58 33.442 80.865 33.442s58.57-11.147 80.865-33.442l193.917-193.916c44.589-44.589 44.589-117.141-.001-161.73z" fill="#ffa289"/></g><g transform="matrix(0.1171875 0 0 0.1171875 74 58)" id="L1_5"><path d="m483.288 279.898c0 56.81-33.312 102.863-78.113 102.863s-90.227-72.305-90.227-129.115 45.426-76.612 90.227-76.612 78.113 46.054 78.113 102.864z" fill="#d5b0ec"/><path d="m405.175 177.035c-.934 0-1.867.012-2.801.029 25.424 17.009 41.948 51.682 41.948 91.693 0 53.846-29.929 98.021-71.2 102.485 10.284 7.256 21.186 11.519 32.053 11.519 44.801 0 78.113-46.053 78.113-102.863s-33.312-102.863-78.113-102.863z" fill="#bb80e0"/><path d="m114.936 264.716c56.58 8.197 125.784 7.2 113.641 91.023-12.143 83.822-62.358 107.188-118.938 98.991-56.58-8.196-117.101-75.287-108.886-131.995s57.603-66.215 114.183-58.019z" fill="#d5b0ec"/><path d="m163.701 271.565c19.999 11.764 31.878 32.39 26.245 71.276-11.944 82.451-60.725 106.406-116.167 99.367 11.668 6.383 23.852 10.783 35.86 12.522 56.58 8.197 106.795-15.169 118.938-98.991 8.719-60.187-24.502-76.644-64.876-84.174z" fill="#bb80e0"/><path d="m330.935 331.146c-36.236 52.394-115.37 60.455-160.514 29.233s-35.903-87.621.333-140.015 85.746-80.943 130.89-49.721 65.528 108.109 29.291 160.503z" fill="#d5b0ec"/><path d="m301.645 170.643c-26.053-18.018-53.559-16.128-79.13-1.238 13.262-.039 26.581 3.99 39.541 12.953 45.144 31.222 65.527 108.109 29.29 160.503-10.622 15.358-24.933 26.902-40.99 34.769 31.253-3.967 61.724-19.22 80.58-46.483 36.236-52.395 15.853-129.282-29.291-160.504z" fill="#bb80e0"/><path d="m248.795 51.423c49.056 40.641 70.961 95.15 34.617 139.019s-111.13 53.192-160.186 12.551-53.807-115.856-17.463-159.725 93.975-32.486 143.032 8.155z" fill="#d5b0ec"/><path d="m248.795 51.423c-32.967-27.311-69.805-41.41-101.454-34.407 22.314 4.365 45.501 16.566 67.037 34.407 49.056 40.641 70.961 95.15 34.617 139.019-16.946 20.455-42.251 33.395-69.407 37.266 39.052 5.605 79.822-8.293 103.825-37.266 36.342-43.869 14.438-98.377-34.618-139.019z" fill="#bb80e0"/><path d="m283.713 282.783c-8.614 12.455-27.425 14.371-38.156 6.949s-8.535-20.829.079-33.283c8.614-12.455 20.383-19.241 31.114-11.819 10.732 7.421 15.577 25.698 6.963 38.153z" fill="#62b4fd"/><path d="m276.75 244.629c-1.567-1.084-3.157-1.856-4.755-2.361 3.664 8.424 3.74 18.94-1.843 27.014-7.029 10.164-20.848 13.307-31.527 10.086.758 4.04 2.955 7.613 6.931 10.363 10.731 7.422 29.542 5.506 38.156-6.949s3.77-30.731-6.962-38.153z" fill="#1690fb"/><path d="m423.622 272.413c0 15.386-9.022 27.859-21.156 27.859s-24.437-19.583-24.437-34.969 12.303-20.749 24.437-20.749c12.133 0 21.156 12.473 21.156 27.859z" fill="#62b4fd"/><path d="m402.466 244.554c-1.278 0-2.557.063-3.824.188 4.678 5.109 7.547 12.858 7.547 21.534 0 13.366-6.811 24.529-16.553 27.231 3.887 4.112 8.369 6.765 12.83 6.765 12.134 0 21.156-12.473 21.156-27.859 0-15.387-9.023-27.859-21.156-27.859z" fill="#1690fb"/><path d="m283.411 190.442c6.091-7.352 10.538-15.003 13.503-22.837-43.845-26.16-91.184 2.189-126.159 52.759-1.137 1.644-2.247 3.292-3.33 4.943 42.512 10.746 89.476-2.865 115.986-34.865z" fill="#ae66d8"/><path d="m200.017 100.931c14.151 11.724 20.47 27.448 9.986 40.103s-32.058 15.344-46.209 3.621c-14.151-11.724-15.521-33.421-5.037-46.076 10.484-12.656 27.109-9.372 41.26 2.352z" fill="#62b4fd"/><path d="m200.017 100.931c-10.564-8.752-22.505-12.796-32.243-9.022 2.982 1.616 5.935 3.628 8.786 5.991 14.151 11.724 20.47 27.448 9.986 40.103-4.328 5.225-10.548 8.745-17.354 10.259 13.784 7.32 31.588 3.905 40.811-7.228 10.484-12.655 4.165-28.379-9.986-40.103z" fill="#1690fb"/><path d="m370.265 349.214c32.457-29.588 68.908-42.451 113.98 6.991s28.901 84.551-3.556 114.139-96.641 38.449-127.133 5-15.747-96.542 16.709-126.13z" fill="#d5b0ec"/><path d="m486.627 358.874c12.653 31.926-2.497 57.104-26.737 79.201-30.174 27.507-87.762 37.092-120.216 11.431 2.617 9.606 7.143 18.446 13.881 25.838 30.493 33.449 94.677 24.588 127.133-5 31.87-29.053 48.033-63.429 5.939-111.47z" fill="#bb80e0"/><path d="m468.453 341.083c-37.931-30.999-69.608-17.923-98.187 8.13-3.602 3.284-6.985 6.983-10.114 11.006 13.793 13.794 29.445 22.542 45.023 22.542 26.726 0 49.362-16.392 63.278-41.678z" fill="#ae66d8"/><path d="m402.339 393.109c11.052-10.075 23.465-14.456 38.813 2.381 15.348 16.836 9.841 28.792-1.211 38.867s-32.908 13.093-43.292 1.703c-10.384-11.391-5.362-32.876 5.69-42.951z" fill="#62b4fd"/><path d="m441.152 395.49c-.118-.129-.234-.246-.352-.373-1.211 5.785-5.141 10.867-10.269 15.542-9.788 8.923-28.043 12.301-39.305 5.048-.91 7.525.579 15.038 5.423 20.352 10.384 11.39 32.24 8.373 43.292-1.702 11.052-10.076 16.559-22.031 1.211-38.867z" fill="#1690fb"/><path d="m145.862 268.757c-11.899 36.164-6.768 69.956 24.56 91.622 15.043 10.404 33.861 16.439 53.608 17.933 1.849-6.982 3.377-14.494 4.548-22.573 9.978-68.881-34.976-80.485-82.716-86.982z" fill="#ae66d8"/><path d="m112.644 332.663c15.983 2.315 35.531 2.034 32.101 25.712s-17.615 30.278-33.597 27.963c-15.983-2.315-33.079-21.267-30.758-37.286 2.32-16.019 16.272-18.704 32.254-16.389z" fill="#62b4fd"/><path d="m126.086 334.539c-.024 1.43-.141 2.956-.38 4.61-3.43 23.678-17.615 30.278-33.597 27.963-2.966-.43-5.969-1.434-8.88-2.884 5.347 11.003 16.897 20.514 27.92 22.11 15.983 2.315 30.167-4.285 33.597-27.963 2.486-17.166-7.106-21.737-18.66-23.836z" fill="#1690fb"/><path d="m314.948 253.646c0 23.292 7.64 49.186 19.738 71.637 22.355-37.644 17.867-85.896-2.744-121.128-10.498 11.828-16.994 28.013-16.994 49.491z" fill="#80499e"/><path d="m265.431 157.768c-2.482 11.271-7.82 22.272-16.437 32.674-16.944 20.453-42.245 33.392-69.398 37.264 39.049 5.603 79.814-8.294 103.816-37.264 6.091-7.352 10.538-15.003 13.503-22.837-10.37-6.186-20.934-9.32-31.484-9.837z" fill="#80499e"/><path d="m262.056 182.358c5.755 3.98 11.105 8.707 15.99 14.026 1.868-1.904 3.661-3.884 5.366-5.942 6.091-7.352 10.538-15.003 13.503-22.837-24.633-14.697-50.368-12.188-74.395 1.799 13.259-.037 26.577 3.992 39.536 12.954z" fill="#80499e"/><path d="m163.705 271.567c19.996 11.764 31.874 32.39 26.241 71.273-1.339 9.242-3.142 17.746-5.364 25.557 12.019 5.527 25.498 8.859 39.447 9.914 1.849-6.982 3.377-14.494 4.548-22.573 8.719-60.184-24.5-76.641-64.872-84.171z" fill="#80499e"/><path d="m432.678 323.657c-12.393 26.486-33.754 44.791-59.549 47.584 10.281 7.255 21.18 11.52 32.046 11.52 26.727 0 49.362-16.392 63.278-41.678-12.574-10.275-24.461-15.704-35.775-17.426z" fill="#80499e"/></g><g transform="matrix(0.1171875 0 0 0.1171875 72 204)" id="L1_6"><g><path d="m271 15v66c0 8.28-6.72 15-15 15s-15-6.72-15-15v-66c0-8.28 6.72-15 15-15s15 6.72 15 15z" fill="#00d933"/><path d="m110 217.918h66c8.284 0 15-6.716 15-15s-6.716-15-15-15h-66c-8.284 0-15 6.716-15 15s6.716 15 15 15z" fill="#ff6769"/><path d="m191 309.188c0-8.284-6.716-15-15-15h-66c-8.284 0-15 6.716-15 15s6.716 15 15 15h66c8.284 0 15-6.716 15-15z" fill="#ff6769"/><path d="m321 202.918c0 8.284 6.716 15 15 15h66c8.284 0 15-6.716 15-15s-6.716-15-15-15h-66c-8.284 0-15 6.716-15 15z" fill="#ff0c6c"/><path d="m402 294.188h-66c-8.284 0-15 6.716-15 15s6.716 15 15 15h66c8.284 0 15-6.716 15-15s-6.716-15-15-15z" fill="#ff0c6c"/><path d="m310.564 116.873c3.839 0 7.678-1.465 10.606-4.394l46.669-46.669c5.858-5.857 5.858-15.355 0-21.213-5.857-5.857-15.355-5.857-21.213 0l-46.669 46.669c-5.858 5.857-5.858 15.355 0 21.213 2.929 2.929 6.768 4.394 10.607 4.394z" fill="#00a85c"/><path d="m165.373 44.598c-5.857-5.857-15.355-5.857-21.213 0s-5.858 15.355 0 21.213l46.669 46.669c2.929 2.929 6.768 4.394 10.606 4.394s7.678-1.465 10.606-4.394c5.858-5.857 5.858-15.355 0-21.213z" fill="#00d933"/><path d="m189.022 397.059-46.669 46.669c-5.858 5.857-5.858 15.355 0 21.213 2.929 2.929 6.768 4.394 10.606 4.394s7.678-1.465 10.606-4.394l46.669-46.669c5.858-5.857 5.858-15.355 0-21.213-5.857-5.858-15.355-5.858-21.212 0z" fill="#00d933"/><path d="m321.363 399.059c-5.857-5.857-15.355-5.857-21.213 0s-5.858 15.355 0 21.213l46.669 46.669c2.929 2.929 6.768 4.394 10.606 4.394s7.678-1.465 10.606-4.394c5.858-5.857 5.858-15.355 0-21.213z" fill="#00a85c"/><path d="m271 431v66c0 8.28-6.72 15-15 15s-15-6.72-15-15v-66c0-8.28 6.72-15 15-15s15 6.72 15 15z" fill="#00d933"/></g><path d="m271 15v66c0 8.28-6.72 15-15 15v-96c8.28 0 15 6.72 15 15z" fill="#00a85c"/><path d="m271 431v66c0 8.28-6.72 15-15 15v-96c8.28 0 15 6.72 15 15z" fill="#00a85c"/><path d="m343.5 161v190c0 48.25-39.25 87.5-87.5 87.5s-87.5-39.25-87.5-87.5v-190c0-48.25 39.25-87.5 87.5-87.5s87.5 39.25 87.5 87.5z" fill="#a6ea4b"/><path d="m343.5 161v190c0 48.25-39.25 87.5-87.5 87.5v-365c48.25 0 87.5 39.25 87.5 87.5z" fill="#00d933"/><g fill="#ff6769"><circle cx="256" cy="256" r="37"/><path d="m271 144.86v22.16c0 8.29-6.72 15-15 15s-15-6.71-15-15v-22.16c0-8.29 6.72-15 15-15s15 6.71 15 15z"/><path d="m271 344.94v22.16c0 8.29-6.72 15-15 15s-15-6.71-15-15v-22.16c0-8.28 6.72-15 15-15s15 6.72 15 15z"/></g><g fill="#ff0c6c"><path d="m256 182.02v-52.16c8.28 0 15 6.71 15 15v22.16c0 8.29-6.72 15-15 15z"/><path d="m271 344.94v22.16c0 8.29-6.72 15-15 15v-52.16c8.28 0 15 6.72 15 15z"/><path d="m293.74 256c0 20.81-16.93 37.74-37.74 37.74v-75.48c20.81 0 37.74 16.93 37.74 37.74z"/></g></g><g transform="matrix(0.8108108043670654 0 0 0.8108108043670654 216.00000467661266 255.00000190528658)" id="L1_7"><path d="m35.124 38.512-8.821 2.767-8.82-2.767-4.314-4.958-3.548-10.495 3.548-10.494 4.314-4.958 8.82-2.768 8.821 2.768 4.314 4.958 3.548 10.494-3.548 10.495z" fill="#eeefee"/><path d="m42.988 23.059-3.55 10.49-4.31 4.96-.98.31 2.97-3.42 3.55-10.5-3.55-10.49-4.31-4.96-8.82-2.76-7.84 2.45 1.33-1.53 8.83-2.77 8.82 2.77 4.31 4.96z" fill="#e1e6e9"/><path d="m31.081 31.429h-9.556l-2.336-2.685v-11.369l2.336-2.686h9.556l2.337 2.686v11.369z" fill="#d5d6db"/><g fill="#323c6b"><path d="m31.081 31.929h-9.556a.5.5 0 0 1 -.377-.172l-2.337-2.685a.5.5 0 0 1 -.123-.328v-11.369a.5.5 0 0 1 .123-.328l2.337-2.686a.5.5 0 0 1 .377-.172h9.556a.5.5 0 0 1 .377.172l2.337 2.686a.5.5 0 0 1 .123.328v11.369a.5.5 0 0 1 -.123.328l-2.337 2.685a.5.5 0 0 1 -.377.172zm-9.328-1h9.1l2.064-2.372v-11l-2.064-2.373h-9.1l-2.064 2.373v11z"/><path d="m19.188 17.875a.5.5 0 0 1 -.312-.109l-6.02-4.81a.5.5 0 0 1 -.064-.719l4.313-4.958a.514.514 0 0 1 .426-.169.5.5 0 0 1 .386.25l4.043 7.083a.5.5 0 0 1 -.058.576l-2.337 2.681a.5.5 0 0 1 -.377.175zm-5.3-5.375 5.237 4.185 1.789-2.056-3.514-6.163z"/><path d="m33.418 17.875a.5.5 0 0 1 -.377-.172l-2.341-2.685a.5.5 0 0 1 -.058-.576l4.043-7.083a.5.5 0 0 1 .386-.25.517.517 0 0 1 .426.169l4.313 4.958a.5.5 0 0 1 -.064.719l-6.02 4.81a.5.5 0 0 1 -.308.11zm-1.727-3.246 1.789 2.056 5.238-4.185-3.509-4.034z"/><path d="m17.482 39.012a.5.5 0 0 1 -.377-.172l-4.313-4.958a.5.5 0 0 1 .064-.719l6.02-4.81a.5.5 0 0 1 .689.063l2.335 2.684a.5.5 0 0 1 .058.576l-4.041 7.084a.5.5 0 0 1 -.386.25zm-3.594-5.393 3.512 4.033 3.518-6.163-1.789-2.056z"/><path d="m35.124 39.012h-.049a.5.5 0 0 1 -.386-.25l-4.043-7.083a.5.5 0 0 1 .054-.579l2.337-2.685a.5.5 0 0 1 .689-.062l6.02 4.81a.5.5 0 0 1 .064.719l-4.31 4.958a.5.5 0 0 1 -.376.172zm-3.433-7.522 3.518 6.163 3.509-4.033-5.238-4.186z"/><path d="m28.621 20.984h-4.636a.5.5 0 1 1 0-1h4.636a.5.5 0 0 1 0 1z"/><path d="m28.621 26.135h-4.636a.5.5 0 0 1 0-1h4.636a.5.5 0 0 1 0 1z"/><path d="m26.3 41.779a.5.5 0 0 1 -.5-.5v-9.85a.5.5 0 0 1 1 0v9.85a.5.5 0 0 1 -.5.5z"/><path d="m26.3 15.189a.5.5 0 0 1 -.5-.5v-9.85a.5.5 0 0 1 1 0v9.85a.5.5 0 0 1 -.5.5z"/><path d="m42.985 23.56h-9.567a.5.5 0 0 1 0-1h9.567a.5.5 0 0 1 0 1z"/><path d="m19.188 23.56h-9.567a.5.5 0 1 1 0-1h9.567a.5.5 0 0 1 0 1z"/></g><path d="m40.608 39.51h25.076v25.076h-25.076z" transform="matrix(0.707 0.707 -0.707 0.707 52.37 -22.336)" fill="#05afd6"/><path d="m70.878 52.049-17.73 17.73-1.43-1.43 16.29-16.3-16.29-16.29 1.43-1.44z" fill="#27a2db"/><path d="m45.981 44.882h14.331v14.331h-14.331z" transform="matrix(0.707 0.707 -0.707 0.707 52.37 -22.336)" fill="#27a2db"/><path d="m53.146 62.682a.5.5 0 0 1 -.354-.146l-10.133-10.136a.5.5 0 0 1 0-.707l10.134-10.132a.5.5 0 0 1 .707 0l10.134 10.133a.5.5 0 0 1 0 .707l-10.134 10.134a.5.5 0 0 1 -.354.147zm-9.426-10.634 9.427 9.427 9.427-9.427-9.427-9.427z" fill="#323c6b"/><path d="m53.146 70.28a.5.5 0 0 1 -.5-.5v-7.6a.5.5 0 0 1 1 0v7.6a.5.5 0 0 1 -.5.5z" fill="#323c6b"/><path d="m53.146 42.414a.5.5 0 0 1 -.5-.5v-7.6a.5.5 0 0 1 1 0v7.6a.5.5 0 0 1 -.5.5z" fill="#323c6b"/><path d="m43.013 52.548h-7.6a.5.5 0 0 1 0-1h7.6a.5.5 0 0 1 0 1z" fill="#323c6b"/><path d="m70.878 52.548h-7.6a.5.5 0 0 1 0-1h7.6a.5.5 0 0 1 0 1z" fill="#323c6b"/><path d="m7.136 47.376h18.616l4.258 4.258v10.702l-4.258 4.258h-18.616l-4.258-4.258v-10.702z" fill="#89c5cd"/><path d="m25.752 47.379h-18.614l-1.63 1.63h19.092a11.86 11.86 0 0 1 1.152-1.63z" fill="#6eaaad"/><path d="m29.589 52.1a6.725 6.725 0 0 1 -1.561.712v11.16l-2.62 2.62h.34l4.26-4.25v-9.959c-.144.047-.285-.355-.419-.283z" fill="#6eaaad"/><path d="m22.826 62.772h-12.764a.5.5 0 0 1 -.343-.136l-2.491-2.343a.5.5 0 0 1 -.157-.364v-5.888a.5.5 0 0 1 .157-.364l2.491-2.343a.5.5 0 0 1 .343-.136h12.764a.5.5 0 0 1 .343.136l2.491 2.343a.5.5 0 0 1 .157.364v5.888a.5.5 0 0 1 -.157.364l-2.491 2.343a.5.5 0 0 1 -.343.136zm-12.566-1h12.368l2.189-2.06v-5.455l-2.189-2.057h-12.368l-2.19 2.057v5.456z" fill="#323c6b"/><path d="m25.317 59.929-2.491 2.343 2.926 4.322 4.258-4.258z" fill="#ebf0f3"/><path d="m25.752 67.094h-.048a.5.5 0 0 1 -.366-.217l-2.926-4.322a.5.5 0 0 1 .071-.645l2.491-2.343a.5.5 0 0 1 .571-.081l4.692 2.407a.5.5 0 0 1 .125.8l-4.258 4.258a.5.5 0 0 1 -.352.143zm-2.273-4.75 2.348 3.468 3.345-3.344-3.772-1.933z" fill="#323c6b"/><path d="m7.571 59.929 2.491 2.343-2.926 4.322-4.258-4.258z" fill="#ebf0f3"/><path d="m7.137 67.094a.5.5 0 0 1 -.354-.146l-4.259-4.258a.5.5 0 0 1 .125-.8l4.692-2.407a.5.5 0 0 1 .571.081l2.488 2.344a.5.5 0 0 1 .071.645l-2.92 4.322a.5.5 0 0 1 -.366.217zm-3.42-4.626 3.346 3.344 2.347-3.468-1.925-1.81z" fill="#323c6b"/><path d="m25.317 54.041-2.491-2.343 2.926-4.322 4.258 4.258z" fill="#ebf0f3"/><path d="m7.571 54.041 2.491-2.343-2.926-4.322-4.258 4.258z" fill="#ebf0f3"/><path d="m7.57 54.541a.5.5 0 0 1 -.229-.055l-4.692-2.407a.5.5 0 0 1 -.125-.8l4.259-4.258a.5.5 0 0 1 .4-.144.5.5 0 0 1 .366.217l2.925 4.322a.5.5 0 0 1 -.071.645l-2.49 2.344a.5.5 0 0 1 -.343.136zm-3.853-3.041 3.768 1.933 1.925-1.809-2.348-3.466z" fill="#323c6b"/><path d="m12.655 9.229a.5.5 0 0 1 -.378-.828l.27-.311a.5.5 0 0 1 .756.655l-.27.311a.5.5 0 0 1 -.378.173z" fill="#323c6b"/><path d="m14.309 7.185a.5.5 0 0 1 -.377-.828l1.468-1.686a.5.5 0 0 1 .228-.149l6.882-2.16a.5.5 0 1 1 .3.954l-6.75 2.118-1.374 1.579a.5.5 0 0 1 -.377.172z" fill="#323c6b"/><path d="m59.472 37.044a.5.5 0 0 1 -.354-.147l-.418-.417a.5.5 0 1 1 .707-.706l.416.417a.5.5 0 0 1 -.354.853z" fill="#323c6b"/><path d="m67.257 44.685a.5.5 0 0 1 -.354-.146l-6.203-6.209a.5.5 0 0 1 .707-.707l6.208 6.208a.5.5 0 0 1 -.354.854z" fill="#323c6b"/><path d="m53.146 70.28a.5.5 0 0 1 -.354-.146l-17.73-17.734a.5.5 0 0 1 0-.707l17.731-17.73a.5.5 0 0 1 .707 0l17.731 17.731a.5.5 0 0 1 0 .707l-17.731 17.732a.5.5 0 0 1 -.354.147zm-17.024-18.232 17.024 17.025 17.025-17.025-17.025-17.025z" fill="#323c6b"/><path d="m26.3 41.779a.5.5 0 0 1 -.149-.023l-8.82-2.768a.5.5 0 0 1 -.228-.149l-4.313-4.958a.5.5 0 0 1 -.1-.168l-3.543-10.493a.5.5 0 0 1 0-.32l3.553-10.5a.5.5 0 0 1 .1-.168l4.313-4.958a.5.5 0 0 1 .228-.149l8.82-2.768a.5.5 0 0 1 .3 0l8.812 2.773a.5.5 0 0 1 .228.149l4.313 4.958a.5.5 0 0 1 .1.168l3.545 10.495a.5.5 0 0 1 0 .32l-3.548 10.494a.5.5 0 0 1 -.1.168l-4.311 4.958a.5.5 0 0 1 -.228.149l-8.821 2.768a.5.5 0 0 1 -.151.022zm-8.536-3.7 8.536 2.676 8.537-2.678 4.163-4.777 3.458-10.24-3.458-10.241-4.16-4.777-8.54-2.679-8.533 2.679-4.155 4.777-3.464 10.241 3.463 10.24z" fill="#323c6b"/><path d="m29.274 51.6a3.171 3.171 0 0 1 .526-.176l-3.805-3.8a7.7 7.7 0 0 0 -1.061 1.547l3.039 3.107c.568-.132.778-.441 1.301-.678z" fill="#e1e6e9"/><path d="m25.752 67.094h-18.615a.5.5 0 0 1 -.354-.146l-4.259-4.258a.5.5 0 0 1 -.146-.354v-10.7a.5.5 0 0 1 .146-.354l4.259-4.258a.5.5 0 0 1 .354-.146h18.615a.5.5 0 0 1 .354.146l4.258 4.258a.5.5 0 0 1 .146.354v10.7a.5.5 0 0 1 -.146.354l-4.258 4.258a.5.5 0 0 1 -.354.146zm-18.408-1h18.2l3.965-3.965v-10.288l-3.965-3.965h-18.2l-3.966 3.965v10.288z" fill="#323c6b"/><path d="m25.317 54.541a.5.5 0 0 1 -.343-.136l-2.491-2.343a.5.5 0 0 1 -.071-.645l2.926-4.317a.5.5 0 0 1 .768-.073l4.258 4.258a.5.5 0 0 1 -.125.8l-4.692 2.407a.5.5 0 0 1 -.23.049zm-1.839-2.915 1.922 1.809 3.771-1.935-3.345-3.345z" fill="#323c6b"/><path d="m58.358 53.395a.6.6 0 0 1 -.424-1.024l.417-.417a.6.6 0 1 1 .848.849l-.417.417a.6.6 0 0 1 -.424.175z" fill="#ffffff"/><path d="m52.938 58.9a.6.6 0 0 1 -.421-1.028l3.988-3.925a.6.6 0 1 1 .842.855l-3.988 3.925a.6.6 0 0 1 -.421.173z" fill="#ffffff"/></g></defs><g fi:class="KUsePattern"><pattern id="pattern_L1_2" width="350" height="350" patternUnits="userSpaceOnUse"><use xlink:href="#L1_2" x="-350" y="-350"/><use xlink:href="#L1_2" x="0" y="-350"/><use xlink:href="#L1_2" x="350" y="-350"/><use xlink:href="#L1_2" x="-350" y="0"/><use xlink:href="#L1_2" x="0" y="0"/><use xlink:href="#L1_2" x="350" y="0"/><use xlink:href="#L1_2" x="-350" y="350"/><use xlink:href="#L1_2" x="0" y="350"/><use xlink:href="#L1_2" x="350" y="350"/></pattern><rect x="0" y="0" width="100%" height="100%" fill="url(#pattern_L1_2)"/></g><g fi:class="KUsePattern"><pattern id="pattern_L1_3" width="350" height="350" patternUnits="userSpaceOnUse"><use xlink:href="#L1_3" x="-350" y="-350"/><use xlink:href="#L1_3" x="0" y="-350"/><use xlink:href="#L1_3" x="350" y="-350"/><use xlink:href="#L1_3" x="-350" y="0"/><use xlink:href="#L1_3" x="0" y="0"/><use xlink:href="#L1_3" x="350" y="0"/><use xlink:href="#L1_3" x="-350" y="350"/><use xlink:href="#L1_3" x="0" y="350"/><use xlink:href="#L1_3" x="350" y="350"/></pattern><rect x="0" y="0" width="100%" height="100%" fill="url(#pattern_L1_3)"/></g><g fi:class="KUsePattern"><pattern id="pattern_L1_5" width="350" height="350" patternUnits="userSpaceOnUse"><use xlink:href="#L1_5" x="-350" y="-350"/><use xlink:href="#L1_5" x="0" y="-350"/><use xlink:href="#L1_5" x="350" y="-350"/><use xlink:href="#L1_5" x="-350" y="0"/><use xlink:href="#L1_5" x="0" y="0"/><use xlink:href="#L1_5" x="350" y="0"/><use xlink:href="#L1_5" x="-350" y="350"/><use xlink:href="#L1_5" x="0" y="350"/><use xlink:href="#L1_5" x="350" y="350"/></pattern><rect x="0" y="0" width="100%" height="100%" fill="url(#pattern_L1_5)"/></g><g fi:class="KUsePattern"><pattern id="pattern_L1_6" width="350" height="350" patternUnits="userSpaceOnUse"><use xlink:href="#L1_6" x="-350" y="-350"/><use xlink:href="#L1_6" x="0" y="-350"/><use xlink:href="#L1_6" x="350" y="-350"/><use xlink:href="#L1_6" x="-350" y="0"/><use xlink:href="#L1_6" x="0" y="0"/><use xlink:href="#L1_6" x="350" y="0"/><use xlink:href="#L1_6" x="-350" y="350"/><use xlink:href="#L1_6" x="0" y="350"/><use xlink:href="#L1_6" x="350" y="350"/></pattern><rect x="0" y="0" width="100%" height="100%" fill="url(#pattern_L1_6)"/></g><g fi:class="KUsePattern"><pattern id="pattern_L1_7" width="350" height="350" patternUnits="userSpaceOnUse"><use xlink:href="#L1_7" x="-350" y="-350"/><use xlink:href="#L1_7" x="0" y="-350"/><use xlink:href="#L1_7" x="350" y="-350"/><use xlink:href="#L1_7" x="-350" y="0"/><use xlink:href="#L1_7" x="0" y="0"/><use xlink:href="#L1_7" x="350" y="0"/><use xlink:href="#L1_7" x="-350" y="350"/><use xlink:href="#L1_7" x="0" y="350"/><use xlink:href="#L1_7" x="350" y="350"/></pattern><rect x="0" y="0" width="100%" height="100%" fill="url(#pattern_L1_7)"/></g></svg>