<svg id="Layer_1" data-name="Layer 1" xmlns="http://www.w3.org/2000/svg" viewBox="0 0 816 115"><path d="M39.23,45.33V97.38a13.45,13.45,0,0,0,.45,4.2,3.27,3.27,0,0,0,1.57,1.8l1.5.83a4.51,4.51,0,0,1,2.48,4.12q0,4.8-5.78,4.8H6.23a6.46,6.46,0,0,1-4.35-1.2,4.19,4.19,0,0,1-1.35-3.3A4.6,4.6,0,0,1,1.28,106a5.49,5.49,0,0,1,2.47-1.88l1.65-.75A3,3,0,0,0,7,101.62a13.88,13.88,0,0,0,.45-4.24V62.13a6.76,6.76,0,0,0-.64-3.41,3.24,3.24,0,0,0-1.91-1.39l-1.65-.52a4.47,4.47,0,0,1-2.29-1.5,4.07,4.07,0,0,1-.71-2.48A4,4,0,0,1,1.2,50a10.28,10.28,0,0,1,3.68-2.1l16.65-6.45q3.82-1.5,6.18-2.17a16.84,16.84,0,0,1,4.62-.68,6.63,6.63,0,0,1,5.13,1.91A6.86,6.86,0,0,1,39.23,45.33Zm-2.7,18.3L32,58.83l2.25-2.1Q44.86,46.61,52.46,42.59t14.14-4q10.05,0,16,6.64t6,17.36v34.8a13.45,13.45,0,0,0,.45,4.2,3.27,3.27,0,0,0,1.57,1.8l1.5.83a4.51,4.51,0,0,1,2.48,4.12q0,4.8-5.78,4.8H56.55q-5.77,0-5.77-4.8a4.5,4.5,0,0,1,2.47-4.12l1.5-.83a3.29,3.29,0,0,0,1.58-1.8,13.45,13.45,0,0,0,.45-4.2V67.08q0-4.8-2-7.2a7.41,7.41,0,0,0-6-2.4,13.75,13.75,0,0,0-5,1,15.13,15.13,0,0,0-4.61,2.85Zm49.35,0-4.5-4.8,2.25-2.1q10.58-10.12,18.18-14.14t14.14-4q10,0,16,6.64t6,17.36v34.8a13.88,13.88,0,0,0,.45,4.24,3,3,0,0,0,1.57,1.76l1.65.75a5.52,5.52,0,0,1,2.48,1.88,4.6,4.6,0,0,1,.75,2.62,4.19,4.19,0,0,1-1.35,3.3,6.46,6.46,0,0,1-4.35,1.2H105.9q-5.78,0-5.77-4.8a4.5,4.5,0,0,1,2.47-4.12l1.5-.83a3.29,3.29,0,0,0,1.58-1.8,13.45,13.45,0,0,0,.45-4.2V67.08q0-4.8-2-7.2a7.41,7.41,0,0,0-6-2.4,13.75,13.75,0,0,0-5,1,15.13,15.13,0,0,0-4.61,2.85Z"/><path d="M190.73,45.33V97.38a13.88,13.88,0,0,0,.45,4.24,3,3,0,0,0,1.57,1.76l1.65.75a5.52,5.52,0,0,1,2.48,1.88,4.68,4.68,0,0,1,.75,2.62,4.19,4.19,0,0,1-1.35,3.3,6.48,6.48,0,0,1-4.35,1.2h-34.2a6.46,6.46,0,0,1-4.35-1.2,4.19,4.19,0,0,1-1.35-3.3,4.53,4.53,0,0,1,.75-2.62,5.44,5.44,0,0,1,2.47-1.88l1.65-.75a3,3,0,0,0,1.58-1.76,13.88,13.88,0,0,0,.45-4.24V62.13a6.76,6.76,0,0,0-.64-3.41,3.24,3.24,0,0,0-1.91-1.39l-1.65-.52a4.47,4.47,0,0,1-2.29-1.5,4.07,4.07,0,0,1-.71-2.48,4,4,0,0,1,1-2.85,10.28,10.28,0,0,1,3.68-2.1L173,41.43q4-1.57,6.37-2.21a15.66,15.66,0,0,1,4.13-.64,7.09,7.09,0,0,1,5.4,1.91A6.79,6.79,0,0,1,190.73,45.33ZM173.18,32q-8.42,0-13.28-3.9A12.9,12.9,0,0,1,155,17.43a12.61,12.61,0,0,1,4.87-10.5q4.88-3.82,13.28-3.82t13.27,3.82a12.62,12.62,0,0,1,4.88,10.5,12.91,12.91,0,0,1-4.88,10.65Q181.58,32,173.18,32Z"/><path d="M279.45,61.76a12.67,12.67,0,0,1-4.31,9.67q-4.32,4-11.52,4-7,0-10.46-3.72a13.3,13.3,0,0,1-3.49-9.48v-2.4a12.93,12.93,0,0,0-2-7.69,6.26,6.26,0,0,0-5.33-2.81,7.45,7.45,0,0,0-4.91,1.95,13.66,13.66,0,0,0-3.71,6,30.73,30.73,0,0,0-1.43,10.16q0,8.7,3,14.55a20.43,20.43,0,0,0,8.13,8.81,23.25,23.25,0,0,0,11.78,3,29.79,29.79,0,0,0,8.66-1.17A20.74,20.74,0,0,0,271.5,88a25.08,25.08,0,0,1,3.3-2.63,4.2,4.2,0,0,1,2.17-.67,2.34,2.34,0,0,1,2.22,1.5,8.58,8.58,0,0,1,.71,3.67,20.17,20.17,0,0,1-4.46,12.49A31.28,31.28,0,0,1,263,111.71a49.47,49.47,0,0,1-39-1A36.07,36.07,0,0,1,209.55,98a33.94,33.94,0,0,1-5.33-19,41.77,41.77,0,0,1,5.14-20.78,37,37,0,0,1,14.55-14.4q9.42-5.25,22.24-5.25a46.05,46.05,0,0,1,17.74,3.11,27.58,27.58,0,0,1,11.51,8.37A18.69,18.69,0,0,1,279.45,61.76Z"/><path d="M325.05,45.33,327.15,61V97.38a6.79,6.79,0,0,0,.75,3.71q.75,1.09,3.45,1.62l5.7,1.12a6,6,0,0,1,3.3,1.58,4.44,4.44,0,0,1,1,3.15,4.12,4.12,0,0,1-1.46,3.37,6.7,6.7,0,0,1-4.32,1.2H294.15a6.46,6.46,0,0,1-4.35-1.2,4.19,4.19,0,0,1-1.35-3.3,4.6,4.6,0,0,1,.75-2.62,5.49,5.49,0,0,1,2.47-1.88l1.65-.75a3,3,0,0,0,1.58-1.76,13.88,13.88,0,0,0,.45-4.24V62.43a6.76,6.76,0,0,0-.64-3.41,3.24,3.24,0,0,0-1.91-1.39l-1.65-.52a4.47,4.47,0,0,1-2.29-1.5,4.66,4.66,0,0,1,.3-5.37,9.69,9.69,0,0,1,3.64-2.06l16.12-6.3a75.83,75.83,0,0,1,7.65-2.7,15.56,15.56,0,0,1,3.6-.6,3.75,3.75,0,0,1,3.23,1.54A12,12,0,0,1,325.05,45.33Zm-.83,26.85q0-11.48,3-18.94t8-11.06a18.23,18.23,0,0,1,10.91-3.6q8,0,12.19,4.76t4.24,14.37q0,9.83-3.94,14.47a12.78,12.78,0,0,1-10.24,4.65q-6.37,0-9.56-3.26t-3.19-9V61.38a5,5,0,0,0-.86-3,2.88,2.88,0,0,0-2.44-1,3.45,3.45,0,0,0-2.66,1.31A9.71,9.71,0,0,0,327.82,63a37.59,37.59,0,0,0-.67,8Z"/><path d="M411.67,38.58q12.75,0,22.28,4.84A36,36,0,0,1,448.76,57a38.26,38.26,0,0,1,5.29,20.25,34.85,34.85,0,0,1-5.55,19.27,39.39,39.39,0,0,1-15.34,13.69,48.79,48.79,0,0,1-22.69,5.06q-12.75,0-22.27-4.91a36.56,36.56,0,0,1-14.82-13.61,38,38,0,0,1-5.28-20.1,35,35,0,0,1,5.55-19.47A38.78,38.78,0,0,1,389,43.57,49.27,49.27,0,0,1,411.67,38.58Zm5.48,65.78a6.44,6.44,0,0,0,4.35-4q1.5-3.3,1.35-9.6a88.14,88.14,0,0,0-2.25-16,87.7,87.7,0,0,0-4.39-15.15q-2.44-5.85-5.29-8.4a6.32,6.32,0,0,0-5.92-1.8,6.4,6.4,0,0,0-4.35,4q-1.5,3.3-1.32,9.56a96.86,96.86,0,0,0,2.22,16A85.51,85.51,0,0,0,406,94.12q2.47,5.88,5.29,8.4A6.48,6.48,0,0,0,417.15,104.36Z"/><path d="M500.92,45.33V97.38a13.45,13.45,0,0,0,.45,4.2,3.27,3.27,0,0,0,1.57,1.8l1.5.83a4.51,4.51,0,0,1,2.48,4.12q0,4.8-5.78,4.8H467.92a6.46,6.46,0,0,1-4.35-1.2,4.19,4.19,0,0,1-1.35-3.3A4.6,4.6,0,0,1,463,106a5.49,5.49,0,0,1,2.47-1.88l1.65-.75a3,3,0,0,0,1.58-1.76,13.88,13.88,0,0,0,.45-4.24V62.13a6.65,6.65,0,0,0-.64-3.41,3.21,3.21,0,0,0-1.91-1.39l-1.65-.52a4.51,4.51,0,0,1-2.29-1.5,4.14,4.14,0,0,1-.71-2.48,4,4,0,0,1,1-2.85,10.28,10.28,0,0,1,3.68-2.1l16.65-6.45q3.82-1.5,6.19-2.17a16.71,16.71,0,0,1,4.61-.68,6.67,6.67,0,0,1,5.14,1.91A6.9,6.9,0,0,1,500.92,45.33Zm-2.7,18.3-4.5-4.8,2.25-2.1q10.57-10.12,18.37-14.14t14.33-4q10.05,0,16.2,6.64T551,62.58v34.8a13.88,13.88,0,0,0,.45,4.24,3,3,0,0,0,1.57,1.76l1.65.75a5.52,5.52,0,0,1,2.48,1.88,4.6,4.6,0,0,1,.75,2.62,4.19,4.19,0,0,1-1.35,3.3,6.46,6.46,0,0,1-4.35,1.2H519q-5.78,0-5.77-4.8a4.5,4.5,0,0,1,2.47-4.12l1.5-.83a3.29,3.29,0,0,0,1.58-1.8,13.45,13.45,0,0,0,.45-4.2V67.08q0-4.8-2.21-7.2a8,8,0,0,0-6.19-2.4,15.26,15.26,0,0,0-5.18,1,14.56,14.56,0,0,0-4.8,2.85Z"/><path d="M564.89,97.16q0-10.27,9.3-16.24t26.1-6a43.74,43.74,0,0,1,7.73.6,18.55,18.55,0,0,1,5.4,1.72l-2.55,6.53a12.86,12.86,0,0,0-3-1.28,11.67,11.67,0,0,0-3-.37,7.33,7.33,0,0,0-5.81,2.43q-2.14,2.44-2.14,7c0,3.2.7,5.63,2.1,7.31a6.89,6.89,0,0,0,5.55,2.51,8.69,8.69,0,0,0,4.09-1,8.27,8.27,0,0,0,2.88-2.36l1.8,6a23.15,23.15,0,0,1-10.46,8.25,37,37,0,0,1-14.66,2.92q-10.5,0-16.91-5.17A15.94,15.94,0,0,1,564.89,97.16Zm45.83,5.7v-1.73l-2.4-.07V52.61A6.66,6.66,0,0,0,606.78,48a5.29,5.29,0,0,0-4.16-1.72,6.2,6.2,0,0,0-3.41.93,2.88,2.88,0,0,0-1.47,2.52v8.17q0,6.3-4.31,9.75t-12.34,3.45q-6.83,0-10.16-2.89a10.07,10.07,0,0,1-3.34-8.06q0-4.95,4.5-9.9T585.63,42q9-3.3,22.76-3.3,15.9,0,23.63,5.81a18.8,18.8,0,0,1,7.72,15.87V96.26a3.77,3.77,0,0,0,.72,2.36,2.6,2.6,0,0,0,2.21.94,3,3,0,0,0,2.06-.68c.52-.45,1-.9,1.46-1.35a7.43,7.43,0,0,1,1.09-.9,2.31,2.31,0,0,1,1.31-.37,2,2,0,0,1,1.84.93,4.52,4.52,0,0,1,.56,2.37,12.65,12.65,0,0,1-2.4,6.93,19.15,19.15,0,0,1-7.16,6.19,24.8,24.8,0,0,1-11.81,2.55q-8.32,0-13.62-3.52T610.72,102.86Z"/><path d="M660.74,91.23V62.13a6.65,6.65,0,0,0-.64-3.41,3.21,3.21,0,0,0-1.91-1.39l-1.65-.52a4.51,4.51,0,0,1-2.29-1.5,4.14,4.14,0,0,1-.71-2.48,4,4,0,0,1,1-2.85,10.22,10.22,0,0,1,3.67-2.1l16.65-6.45q4-1.57,6.38-2.21a15.6,15.6,0,0,1,4.12-.64,7.09,7.09,0,0,1,5.4,1.91,6.79,6.79,0,0,1,1.8,4.84v41.4q0,4.8,2.21,7.2a8,8,0,0,0,6.19,2.4,15.24,15.24,0,0,0,5.18-1,14.56,14.56,0,0,0,4.8-2.85l2.62-2.33L718,95l-2.25,2.1q-10.57,10.13-18.37,14.14t-14.33,4q-10,0-16.16-6.67T660.74,91.23Zm49.58,6.53v-1h-1.13V62.13a6.65,6.65,0,0,0-.64-3.41,3.21,3.21,0,0,0-1.91-1.39L705,56.81a4.51,4.51,0,0,1-2.29-1.5,4.14,4.14,0,0,1-.71-2.48A4,4,0,0,1,703,50a10.13,10.13,0,0,1,3.67-2.1l16.65-6.45q3.83-1.5,6.19-2.17a16.71,16.71,0,0,1,4.61-.68,6.67,6.67,0,0,1,5.14,1.91A6.9,6.9,0,0,1,741,45.33V97.38a13.88,13.88,0,0,0,.45,4.24,3,3,0,0,0,1.58,1.76l1.65.75a5.49,5.49,0,0,1,2.47,1.88,4.6,4.6,0,0,1,.75,2.62,4.19,4.19,0,0,1-1.35,3.3,6.46,6.46,0,0,1-4.35,1.2H723.82a12.34,12.34,0,0,1-9.42-4.57A15.7,15.7,0,0,1,710.32,97.76Z"/><path d="M759.44,50.58l-2.4-1a5.93,5.93,0,0,1-2.48-1.73A4.48,4.48,0,0,1,755.2,42,6,6,0,0,1,759,40.83h4.12a5.09,5.09,0,0,0,2.67-.75,19,19,0,0,0,3.18-2.7L781.19,25a22.19,22.19,0,0,1,4.61-3.68,8.39,8.39,0,0,1,4.09-1.2,4.27,4.27,0,0,1,3.41,1.43,6.07,6.07,0,0,1,1.24,4.12V85.83q0,5.48,1.87,8.33a6.08,6.08,0,0,0,5.4,2.85,6.22,6.22,0,0,0,4.39-1.43,11.7,11.7,0,0,0,2.48-3.26,22.7,22.7,0,0,1,2-3.26,3.36,3.36,0,0,1,2.85-1.43,3,3,0,0,1,2.4,1.05,5.57,5.57,0,0,1,.9,3.6,19.66,19.66,0,0,1-3.67,11.59A25.56,25.56,0,0,1,803,112.16a33.76,33.76,0,0,1-14.7,3.07q-12.22,0-18.9-5.89t-6.67-17.81V55.46a5,5,0,0,0-.79-3.15A6.46,6.46,0,0,0,759.44,50.58Zm24.15.9V40.83H811a6.23,6.23,0,0,1,3.72,1,3.38,3.38,0,0,1,1.38,2.89,5.72,5.72,0,0,1-2.77,4.8q-2.77,1.95-9.15,1.95Z"/></svg>